<svg width="52" height="52" viewBox="0 0 52 52" fill="none" xmlns="http://www.w3.org/2000/svg">
<path fill-rule="evenodd" clip-rule="evenodd" d="M8.3454 49.5644C14.7065 52.5602 23.479 50.5108 30.9403 47.1173C37.8998 43.9518 45.8113 38.6552 49.8379 31.949C52.3938 27.6954 51.8226 23.1211 49.8135 19.0983H42.113C37.3511 19.0983 34.966 21.4826 34.966 26.252V37.4847H31.9055V26.252C31.9055 19.4407 35.3083 16.0378 42.113 16.0378H47.9489C47.4143 15.2978 46.8393 14.5896 46.2381 13.9209C44.4616 11.9446 41.7791 10.0763 39.4671 8.30452C37.2358 6.59466 34.8149 5.2506 31.5997 3.74896C26.0574 1.15931 17.2577 -1.2043 10.9144 0.67908C7.18424 1.78585 5.7023 3.56699 3.98306 6.23824C3.62289 6.23824 1.4797 10.6456 0.722786 15.3775C-0.646603 23.9493 -0.994579 45.1655 8.3454 49.5644ZM27.303 17.5714C25.9439 17.5714 25.2602 16.8876 25.2602 15.5285C25.2602 14.162 25.9439 13.4848 27.303 13.4848C28.6705 13.4848 29.3468 14.162 29.3468 15.5285C29.3468 16.8876 28.6705 17.5714 27.303 17.5714ZM25.776 37.4847V24.4558L22.708 25.1733V30.3376C22.708 35.1005 20.3238 37.4847 15.5544 37.4847H8.40825C3.63883 37.4847 1.26116 35.4419 1.26116 31.3553C1.26116 28.3858 2.2929 26.6844 4.36386 26.252L7.00979 25.6498L19.6185 22.7628C19.4947 20.3204 18.1356 19.0983 15.5544 19.0983H8.40825C5.68166 19.0983 4.32165 20.464 4.32165 23.184H1.26116C1.26116 18.4221 3.63883 16.0369 8.40825 16.0369H15.5544C19.9355 16.0369 22.3029 18.0487 22.6602 22.0669L28.8375 20.6534V37.4847H25.776ZM15.5544 34.4167C18.281 34.4167 19.6401 33.0577 19.6401 30.3376V25.9452L5.15924 29.2712C4.60116 29.4663 4.32165 29.8152 4.32165 30.3376C4.32165 33.0577 5.68166 34.4167 8.40825 34.4167H15.5544Z" fill="url(#paint0_linear_1218_8378)"/>
<defs>
<linearGradient id="paint0_linear_1218_8378" x1="49.0322" y1="72.739" x2="23.469" y2="8.38349" gradientUnits="userSpaceOnUse">
<stop stop-color="#8E04B7"/>
<stop offset="1" stop-color="#E13C52"/>
</linearGradient>
</defs>
</svg>
