<svg width="130" height="40" viewBox="0 0 130 40" fill="none" xmlns="http://www.w3.org/2000/svg">
<path d="M129.278 35.3708C129.278 37.5015 127.623 39.2274 125.576 39.2274H4.42892C2.38292 39.2274 0.722168 37.5015 0.722168 35.3708V4.61599C0.722168 2.48632 2.38292 0.754395 4.42892 0.754395H125.575C127.623 0.754395 129.277 2.48632 129.277 4.61599L129.278 35.3708Z" fill="black"/>
<path d="M125.185 0.800844C127.414 0.800844 129.228 2.68374 129.228 4.99768V34.984C129.228 37.2979 127.414 39.1808 125.185 39.1808H4.81482C2.58556 39.1808 0.771574 37.2979 0.771574 34.984V4.99768C0.771574 2.68374 2.58556 0.800844 4.81482 0.800844H125.185ZM125.185 -3.8147e-05H4.81482C2.16787 -3.8147e-05 0 2.25018 0 4.99768V34.984C0 37.7315 2.16787 39.9817 4.81482 39.9817H125.185C127.832 39.9817 130 37.7315 130 34.984V4.99768C130 2.25018 127.832 -3.8147e-05 125.185 -3.8147e-05Z" fill="#A6A6A6"/>
<path d="M29.0124 19.7749C28.9845 16.5534 31.5536 14.9861 31.6711 14.9131C30.2161 12.7111 27.9608 12.4103 27.1683 12.3863C25.2742 12.1794 23.4368 13.5628 22.4719 13.5628C21.4878 13.5628 20.0019 12.4063 18.4005 12.4403C16.3398 12.4733 14.4119 13.7117 13.3546 15.6348C11.1725 19.556 12.7999 25.3184 14.8905 28.4879C15.9363 30.0402 17.1583 31.7734 18.7578 31.7125C20.3226 31.6455 20.9071 30.6769 22.7955 30.6769C24.6665 30.6769 25.2154 31.7125 26.8467 31.6735C28.5261 31.6455 29.5834 30.1142 30.5926 28.5479C31.8011 26.7687 32.2865 25.0165 32.3057 24.9266C32.2662 24.9126 29.0442 23.6361 29.0124 19.7749Z" fill="white"/>
<path d="M25.9309 10.3012C26.7725 9.20874 27.3484 7.72242 27.1885 6.21411C25.9704 6.27009 24.447 7.08871 23.5697 8.15722C22.7936 9.09879 22.1002 10.6421 22.2793 12.0934C23.6477 12.1994 25.0527 11.3768 25.9309 10.3012Z" fill="white"/>
<path d="M51.6582 31.4899H49.4714L48.2734 27.5827H44.1096L42.9685 31.4899H40.8394L44.9647 18.188H47.5127L51.6582 31.4899ZM47.9123 25.9434L46.829 22.47C46.7144 22.1152 46.4996 21.2796 46.1828 19.9642H46.1443C46.0182 20.5299 45.815 21.3655 45.5357 22.47L44.4716 25.9434H47.9123V25.9434Z" fill="white"/>
<path d="M62.2674 26.5762C62.2674 28.2074 61.8427 29.4969 60.9934 30.4434C60.2327 31.286 59.288 31.7068 58.1604 31.7068C56.9432 31.7068 56.0688 31.2531 55.5363 30.3455H55.4978V35.3982H53.4447V25.0559C53.4447 24.0304 53.4187 22.9778 53.3687 21.8983H55.1742L55.2888 23.4186H55.3273C56.012 22.2732 57.051 21.7014 58.4454 21.7014C59.5355 21.7014 60.4455 22.1482 61.1735 23.0428C61.9034 23.9384 62.2674 25.1159 62.2674 26.5762ZM60.1758 26.6542C60.1758 25.7206 59.9736 24.9509 59.5672 24.3452C59.1233 23.7135 58.5272 23.3976 57.78 23.3976C57.2735 23.3976 56.8132 23.5736 56.402 23.9204C55.9898 24.2702 55.7202 24.727 55.5941 25.2928C55.5305 25.5567 55.4987 25.7726 55.4987 25.9425V27.5417C55.4987 28.2394 55.7048 28.8282 56.1169 29.3089C56.5291 29.7897 57.0645 30.0296 57.7232 30.0296C58.4964 30.0296 59.0983 29.7198 59.5287 29.102C59.9601 28.4833 60.1758 27.6677 60.1758 26.6542Z" fill="white"/>
<path d="M72.8953 26.5762C72.8953 28.2074 72.4707 29.4969 71.6204 30.4434C70.8606 31.286 69.9159 31.7068 68.7883 31.7068C67.5711 31.7068 66.6967 31.2531 66.1652 30.3455H66.1267V35.3982H64.0736V25.0559C64.0736 24.0304 64.0476 22.9778 63.9976 21.8983H65.8031L65.9177 23.4186H65.9562C66.6399 22.2732 67.679 21.7014 69.0743 21.7014C70.1634 21.7014 71.0734 22.1482 71.8033 23.0428C72.5304 23.9384 72.8953 25.1159 72.8953 26.5762ZM70.8038 26.6542C70.8038 25.7206 70.6006 24.9509 70.1942 24.3452C69.7503 23.7135 69.1562 23.3976 68.4079 23.3976C67.9005 23.3976 67.4411 23.5736 67.029 23.9204C66.6168 24.2702 66.3481 24.727 66.222 25.2928C66.1594 25.5567 66.1267 25.7726 66.1267 25.9425V27.5417C66.1267 28.2394 66.3327 28.8282 66.743 29.3089C67.1551 29.7887 67.6905 30.0296 68.3511 30.0296C69.1244 30.0296 69.7262 29.7198 70.1567 29.102C70.5881 28.4833 70.8038 27.6677 70.8038 26.6542Z" fill="white"/>
<path d="M84.7783 27.7595C84.7783 28.8909 84.3999 29.8115 83.6401 30.5222C82.8052 31.2988 81.6429 31.6867 80.1494 31.6867C78.7704 31.6867 77.6649 31.4108 76.8281 30.858L77.3038 29.0819C78.2052 29.6476 79.1941 29.9315 80.2717 29.9315C81.0449 29.9315 81.6468 29.7495 82.0792 29.3877C82.5096 29.0259 82.7243 28.5401 82.7243 27.9344C82.7243 27.3946 82.5472 26.9398 82.1918 26.571C81.8384 26.2022 81.2481 25.8593 80.4238 25.5425C78.1801 24.6739 77.0592 23.4015 77.0592 21.7282C77.0592 20.6347 77.4521 19.7381 78.2389 19.0404C79.0227 18.3418 80.0685 17.9929 81.3762 17.9929C82.5423 17.9929 83.5111 18.2038 84.2843 18.6246L83.7711 20.3618C83.0489 19.954 82.2323 19.7501 81.3184 19.7501C80.5962 19.7501 80.0319 19.935 79.6275 20.3029C79.2856 20.6317 79.1142 21.0325 79.1142 21.5073C79.1142 22.0331 79.3097 22.4679 79.7026 22.8097C80.0444 23.1256 80.6655 23.4674 81.5669 23.8363C82.6695 24.297 83.4793 24.8358 84.0003 25.4535C84.5193 26.0692 84.7783 26.8399 84.7783 27.7595Z" fill="white"/>
<path d="M91.5665 23.4975H89.3036V28.1544C89.3036 29.3388 89.7022 29.9305 90.5015 29.9305C90.8684 29.9305 91.1727 29.8976 91.4134 29.8316L91.4702 31.4498C91.0658 31.6068 90.5333 31.6857 89.8736 31.6857C89.0628 31.6857 88.4292 31.4289 87.9718 30.9161C87.5163 30.4023 87.2871 29.5407 87.2871 28.3303V23.4955H85.939V21.8962H87.2871V20.14L89.3036 19.5083V21.8962H91.5665V23.4975Z" fill="white"/>
<path d="M101.776 26.6151C101.776 28.0895 101.37 29.2999 100.559 30.2465C99.709 31.221 98.5804 31.7068 97.1735 31.7068C95.8177 31.7068 94.7382 31.24 93.9331 30.3065C93.1281 29.3729 92.7256 28.1944 92.7256 26.7741C92.7256 25.2878 93.1397 24.0703 93.9707 23.1237C94.7998 22.1762 95.9188 21.7024 97.3257 21.7024C98.6815 21.7024 99.7725 22.1692 100.596 23.1038C101.384 24.0103 101.776 25.1808 101.776 26.6151ZM99.6464 26.6841C99.6464 25.7995 99.4644 25.0409 99.0956 24.4082C98.6651 23.6425 98.0498 23.2607 97.2525 23.2607C96.4272 23.2607 95.8003 23.6435 95.3699 24.4082C95.0011 25.0419 94.8191 25.8125 94.8191 26.7241C94.8191 27.6087 95.0011 28.3673 95.3699 28.9991C95.8138 29.7647 96.434 30.1465 97.2342 30.1465C98.018 30.1465 98.6334 29.7567 99.0773 28.9791C99.4557 28.3344 99.6464 27.5677 99.6464 26.6841Z" fill="white"/>
<path d="M108.45 23.7725C108.247 23.7335 108.03 23.7135 107.803 23.7135C107.08 23.7135 106.522 23.9964 106.129 24.5631C105.787 25.0629 105.616 25.6946 105.616 26.4572V31.4899H103.564L103.583 24.9189C103.583 23.8135 103.557 22.8069 103.506 21.8993H105.294L105.369 23.7345H105.426C105.643 23.1038 105.985 22.596 106.453 22.2152C106.91 21.8723 107.404 21.7014 107.936 21.7014C108.126 21.7014 108.298 21.7154 108.45 21.7404V23.7725Z" fill="white"/>
<path d="M117.632 26.2403C117.632 26.6221 117.608 26.9439 117.556 27.2068H111.397C111.421 28.1544 111.719 28.8791 112.291 29.3788C112.81 29.8256 113.481 30.0495 114.306 30.0495C115.217 30.0495 116.049 29.8986 116.798 29.5957L117.119 31.0751C116.245 31.4709 115.213 31.6678 114.021 31.6678C112.589 31.6678 111.464 31.23 110.645 30.3554C109.829 29.4808 109.419 28.3063 109.419 26.833C109.419 25.3867 109.8 24.1822 110.562 23.2216C111.359 22.1961 112.436 21.6833 113.792 21.6833C115.124 21.6833 116.132 22.1961 116.817 23.2216C117.359 24.0363 117.632 25.0438 117.632 26.2403ZM115.674 25.6875C115.687 25.0558 115.554 24.5101 115.275 24.0493C114.92 23.4565 114.374 23.1607 113.639 23.1607C112.968 23.1607 112.422 23.4495 112.005 24.0293C111.663 24.4901 111.46 25.0428 111.397 25.6865H115.674V25.6875Z" fill="white"/>
<path d="M47.2336 10.0043C47.2336 11.1808 46.8936 12.0664 46.2147 12.6611C45.5859 13.2099 44.6923 13.4847 43.5348 13.4847C42.9609 13.4847 42.4698 13.4588 42.0586 13.4068V6.97871C42.595 6.88875 43.1727 6.84277 43.7967 6.84277C44.8993 6.84277 45.7304 7.09166 46.2908 7.58943C46.9187 8.15217 47.2336 8.95681 47.2336 10.0043ZM46.1695 10.0333C46.1695 9.27066 45.975 8.68593 45.5859 8.27812C45.1969 7.8713 44.6287 7.6674 43.8805 7.6674C43.5627 7.6674 43.2922 7.68939 43.0678 7.73537V12.6221C43.192 12.6421 43.4193 12.6511 43.7496 12.6511C44.5219 12.6511 45.1179 12.4282 45.5378 11.9824C45.9576 11.5366 46.1695 10.8869 46.1695 10.0333Z" fill="white"/>
<path d="M52.8757 11.0318C52.8757 11.7565 52.6764 12.3502 52.2777 12.816C51.8598 13.2948 51.3061 13.5336 50.6147 13.5336C49.9483 13.5336 49.4177 13.3048 49.0219 12.845C48.6271 12.3862 48.4297 11.8074 48.4297 11.1098C48.4297 10.3801 48.6329 9.78137 49.0412 9.31658C49.4495 8.85179 49.9984 8.6189 50.6898 8.6189C51.3561 8.6189 51.8915 8.84779 52.2969 9.30658C52.6821 9.75238 52.8757 10.3281 52.8757 11.0318ZM51.8289 11.0658C51.8289 10.631 51.7384 10.2581 51.5584 9.94729C51.3465 9.57146 51.0451 9.38355 50.6532 9.38355C50.2478 9.38355 49.9396 9.57146 49.7278 9.94729C49.5467 10.2581 49.4572 10.637 49.4572 11.0848C49.4572 11.5196 49.5477 11.8924 49.7278 12.2033C49.9464 12.5791 50.2507 12.767 50.6435 12.767C51.0287 12.767 51.3311 12.5761 51.5487 12.1933C51.7355 11.8764 51.8289 11.5006 51.8289 11.0658Z" fill="white"/>
<path d="M60.4408 8.71509L59.0204 13.4269H58.096L57.5076 11.3809C57.3584 10.8701 57.237 10.3623 57.1427 9.85857H57.1244C57.0367 10.3763 56.9154 10.8831 56.7594 11.3809L56.1344 13.4269H55.1994L53.8638 8.71509H54.9009L55.4141 10.9551C55.5384 11.4848 55.6404 11.9896 55.7223 12.4674H55.7406C55.8157 12.0736 55.9399 11.5718 56.1152 10.9651L56.7594 8.71609H57.5818L58.199 10.9171C58.3483 11.4538 58.4696 11.9706 58.563 12.4684H58.591C58.6593 11.9836 58.7624 11.4668 58.8991 10.9171L59.4499 8.71609H60.4408V8.71509Z" fill="white"/>
<path d="M65.6723 13.4268H64.6631V10.728C64.6631 9.89638 64.3588 9.48057 63.7483 9.48057C63.4488 9.48057 63.2071 9.59452 63.0194 9.82342C62.8335 10.0523 62.7391 10.3222 62.7391 10.631V13.4258H61.7299V10.0613C61.7299 9.6475 61.7174 9.1987 61.6934 8.71292H62.5802L62.6274 9.44959H62.6554C62.7728 9.22069 62.9481 9.03178 63.1782 8.88085C63.4517 8.70493 63.7579 8.61597 64.0931 8.61597C64.5168 8.61597 64.8692 8.7579 65.1494 9.04277C65.498 9.39161 65.6723 9.91238 65.6723 10.6041V13.4268V13.4268Z" fill="white"/>
<path d="M68.4555 13.4268H67.4473V6.55298H68.4555V13.4268Z" fill="white"/>
<path d="M74.3967 11.0318C74.3967 11.7565 74.1974 12.3502 73.7987 12.816C73.3808 13.2948 72.8261 13.5336 72.1357 13.5336C71.4683 13.5336 70.9377 13.3048 70.5429 12.845C70.1481 12.3862 69.9507 11.8074 69.9507 11.1098C69.9507 10.3801 70.1539 9.78137 70.5622 9.31658C70.9705 8.85179 71.5194 8.6189 72.2098 8.6189C72.8771 8.6189 73.4116 8.84779 73.8179 9.30658C74.2031 9.75238 74.3967 10.3281 74.3967 11.0318ZM73.349 11.0658C73.349 10.631 73.2585 10.2581 73.0784 9.94729C72.8675 9.57146 72.5651 9.38355 72.1742 9.38355C71.7678 9.38355 71.4596 9.57146 71.2488 9.94729C71.0677 10.2581 70.9782 10.637 70.9782 11.0848C70.9782 11.5196 71.0687 11.8924 71.2488 12.2033C71.4673 12.5791 71.7717 12.767 72.1645 12.767C72.5497 12.767 72.8511 12.5761 73.0688 12.1933C73.2565 11.8764 73.349 11.5006 73.349 11.0658Z" fill="white"/>
<path d="M79.2809 13.4267H78.3747L78.2996 12.8839H78.2717C77.9616 13.3167 77.5196 13.5336 76.9457 13.5336C76.5172 13.5336 76.1705 13.3907 75.9095 13.1068C75.6726 12.849 75.5542 12.5281 75.5542 12.1473C75.5542 11.5715 75.7853 11.1327 76.2504 10.8289C76.7146 10.525 77.3675 10.3761 78.2081 10.3831V10.2951C78.2081 9.67441 77.8942 9.36456 77.2654 9.36456C76.8176 9.36456 76.4228 9.4815 76.0819 9.7134L75.8768 9.02571C76.2986 8.75483 76.8195 8.6189 77.4339 8.6189C78.6203 8.6189 79.2154 9.2686 79.2154 10.568V12.3032C79.2154 12.774 79.2375 13.1488 79.2809 13.4267ZM78.2332 11.8074V11.0808C77.12 11.0608 76.5634 11.3776 76.5634 12.0303C76.5634 12.2762 76.6269 12.4601 76.7569 12.5831C76.8869 12.706 77.0526 12.767 77.25 12.767C77.4715 12.767 77.6785 12.694 77.8672 12.5491C78.0569 12.4032 78.1735 12.2183 78.2168 11.9914C78.2274 11.9404 78.2332 11.8784 78.2332 11.8074Z" fill="white"/>
<path d="M85.0155 13.4268H84.1199L84.0727 12.6702H84.0448C83.7588 13.2459 83.2715 13.5338 82.5869 13.5338C82.0399 13.5338 81.5844 13.3109 81.2233 12.8651C80.8622 12.4193 80.6821 11.8406 80.6821 11.1299C80.6821 10.3672 80.8776 9.74952 81.2705 9.27773C81.6509 8.83793 82.1169 8.61803 82.6716 8.61803C83.2812 8.61803 83.7078 8.83094 83.9504 9.25774H83.9697V6.55298H84.9798V12.1574C84.9798 12.6162 84.9914 13.039 85.0155 13.4268ZM83.9697 11.4397V10.6541C83.9697 10.5182 83.96 10.4082 83.9417 10.3243C83.8849 10.0724 83.7626 9.86047 83.5768 9.68955C83.389 9.51862 83.1627 9.43266 82.9017 9.43266C82.5252 9.43266 82.2306 9.58759 82.0139 9.89845C81.7992 10.2093 81.6903 10.6061 81.6903 11.0909C81.6903 11.5567 81.7934 11.9345 82.0004 12.2254C82.219 12.5352 82.5137 12.6902 82.8825 12.6902C83.2138 12.6902 83.4786 12.5612 83.6798 12.3024C83.8743 12.0635 83.9697 11.7756 83.9697 11.4397Z" fill="white"/>
<path d="M93.6467 11.0318C93.6467 11.7565 93.4473 12.3502 93.0487 12.816C92.6308 13.2948 92.078 13.5336 91.3856 13.5336C90.7202 13.5336 90.1897 13.3048 89.7929 12.845C89.3981 12.3862 89.2007 11.8074 89.2007 11.1098C89.2007 10.3801 89.4039 9.78137 89.8122 9.31658C90.2205 8.85179 90.7693 8.6189 91.4617 8.6189C92.1271 8.6189 92.6635 8.84779 93.0679 9.30658C93.4531 9.75238 93.6467 10.3281 93.6467 11.0318ZM92.6009 11.0658C92.6009 10.631 92.5104 10.2581 92.3303 9.94729C92.1175 9.57146 91.8171 9.38355 91.4242 9.38355C91.0197 9.38355 90.7116 9.57146 90.4988 9.94729C90.3177 10.2581 90.2282 10.637 90.2282 11.0848C90.2282 11.5196 90.3187 11.8924 90.4988 12.2033C90.7173 12.5791 91.0216 12.767 91.4145 12.767C91.7997 12.767 92.1031 12.5761 92.3207 12.1933C92.5065 11.8764 92.6009 11.5006 92.6009 11.0658Z" fill="white"/>
<path d="M99.0727 13.4268H98.0645V10.728C98.0645 9.89638 97.7602 9.48057 97.1487 9.48057C96.8492 9.48057 96.6075 9.59452 96.4207 9.82342C96.2339 10.0523 96.1405 10.3222 96.1405 10.631V13.4258H95.1304V10.0613C95.1304 9.6475 95.1188 9.1987 95.0947 8.71292H95.9806L96.0278 9.44959H96.0558C96.1742 9.22069 96.3495 9.03178 96.5787 8.88085C96.8531 8.70493 97.1584 8.61597 97.4944 8.61597C97.9172 8.61597 98.2696 8.7579 98.5498 9.04277C98.8994 9.39161 99.0727 9.91238 99.0727 10.6041V13.4268V13.4268Z" fill="white"/>
<path d="M105.865 9.49961H104.753V11.7886C104.753 12.3703 104.951 12.6612 105.342 12.6612C105.523 12.6612 105.673 12.6452 105.792 12.6122L105.818 13.4068C105.618 13.4848 105.356 13.5238 105.034 13.5238C104.635 13.5238 104.325 13.3978 104.101 13.1459C103.875 12.8941 103.764 12.4703 103.764 11.8755V9.49961H103.1V8.71497H103.764V7.85136L104.753 7.5415V8.71397H105.864V9.49961H105.865Z" fill="white"/>
<path d="M111.207 13.4268H110.197V10.7481C110.197 9.90345 109.893 9.48064 109.283 9.48064C108.815 9.48064 108.495 9.72553 108.32 10.2153C108.29 10.3183 108.273 10.4442 108.273 10.5921V13.4258H107.265V6.55298H108.273V9.39268H108.292C108.61 8.87592 109.065 8.61803 109.656 8.61803C110.074 8.61803 110.419 8.75997 110.694 9.04484C111.036 9.39968 111.207 9.92744 111.207 10.6251V13.4268V13.4268Z" fill="white"/>
<path d="M116.718 10.8478C116.718 11.0358 116.704 11.1937 116.68 11.3226H113.654C113.667 11.7884 113.812 12.1432 114.092 12.3891C114.348 12.609 114.678 12.719 115.083 12.719C115.531 12.719 115.939 12.645 116.307 12.4961L116.465 13.2238C116.034 13.4177 115.528 13.5146 114.941 13.5146C114.238 13.5146 113.685 13.2997 113.284 12.8699C112.881 12.4401 112.682 11.8634 112.682 11.1397C112.682 10.429 112.868 9.8373 113.243 9.36552C113.634 8.86175 114.162 8.60986 114.83 8.60986C115.482 8.60986 115.978 8.86175 116.313 9.36552C116.584 9.76533 116.718 10.2601 116.718 10.8478ZM115.755 10.577C115.763 10.2661 115.696 9.99823 115.559 9.77233C115.384 9.48147 115.117 9.33553 114.756 9.33553C114.427 9.33553 114.158 9.47747 113.953 9.76234C113.786 9.98923 113.687 10.2601 113.654 10.577H115.755Z" fill="white"/>
</svg>
