<svg width="130" height="41" viewBox="0 0 130 41" fill="none" xmlns="http://www.w3.org/2000/svg">
<path d="M125.185 40.0369H4.81482C2.16787 40.0369 0 37.7835 0 35.0323V5.0047C0 2.25343 2.16787 0.000106812 4.81482 0.000106812H125.185C127.832 0.000106812 130 2.25343 130 5.0047V35.0323C130 37.7835 127.832 40.0369 125.185 40.0369Z" fill="black"/>
<path d="M125.185 0.802092C127.414 0.802092 129.228 2.68757 129.228 5.0047V35.0323C129.228 37.3494 127.414 39.2349 125.185 39.2349H4.81482C2.58556 39.2349 0.771574 37.3494 0.771574 35.0323V5.0047C0.771574 2.68757 2.58556 0.802092 4.81482 0.802092H125.185ZM125.185 0.000106812H4.81482C2.16787 0.000106812 0 2.25343 0 5.0047V35.0323C0 37.7835 2.16787 40.0369 4.81482 40.0369H125.185C127.832 40.0369 130 37.7835 130 35.0323V5.0047C130 2.25343 127.832 0.000106812 125.185 0.000106812Z" fill="#A6A6A6"/>
<path d="M45.6612 10.2532C45.6612 11.089 45.4204 11.7583 44.9462 12.2575C44.4009 12.8493 43.6907 13.1471 42.8204 13.1471C41.9887 13.1471 41.2785 12.8443 40.6959 12.2475C40.1121 11.642 39.8208 10.8988 39.8208 10.0092C39.8208 9.11965 40.1121 8.37647 40.6959 7.77592C41.2785 7.17412 41.9887 6.87134 42.8204 6.87134C43.2345 6.87134 43.6293 6.96017 44.0061 7.12532C44.3816 7.29172 44.6874 7.51693 44.9089 7.79469L44.4057 8.32267C44.0193 7.84849 43.4933 7.61452 42.8204 7.61452C42.2138 7.61452 41.6877 7.83472 41.2412 8.27888C40.7994 8.72429 40.5779 9.30107 40.5779 10.0092C40.5779 10.7174 40.7994 11.2992 41.2412 11.7446C41.6877 12.1837 42.2138 12.4089 42.8204 12.4089C43.4644 12.4089 44.0061 12.1837 44.4334 11.7396C44.7151 11.4455 44.8752 11.0402 44.9173 10.5222H42.8204V9.79903H45.6178C45.6515 9.95542 45.6612 10.1068 45.6612 10.2532V10.2532Z" fill="white" stroke="white" stroke-width="0.16" stroke-miterlimit="10"/>
<path d="M50.0991 7.74596H47.4714V9.64771H49.8403V10.3709H47.4714V12.2726H50.0991V13.0095H46.7275V7.00903H50.0991V7.74596Z" fill="white" stroke="white" stroke-width="0.16" stroke-miterlimit="10"/>
<path d="M53.2311 13.0095H52.4872V7.74596H50.8755V7.00903H54.8441V7.74596H53.2311V13.0095V13.0095Z" fill="white" stroke="white" stroke-width="0.16" stroke-miterlimit="10"/>
<path d="M57.7163 13.0095V7.00903H58.459V13.0095H57.7163Z" fill="white" stroke="white" stroke-width="0.16" stroke-miterlimit="10"/>
<path d="M61.7511 13.0095H61.0133V7.74596H59.3955V7.00903H63.3689V7.74596H61.7511V13.0095Z" fill="white" stroke="white" stroke-width="0.16" stroke-miterlimit="10"/>
<path d="M70.8825 12.2375C70.3131 12.8443 69.6078 13.1471 68.7664 13.1471C67.9202 13.1471 67.2148 12.8443 66.6455 12.2375C66.0773 11.632 65.7944 10.8888 65.7944 10.0092C65.7944 9.12966 66.0773 8.38648 66.6455 7.78092C67.2148 7.17412 67.9202 6.87134 68.7664 6.87134C69.603 6.87134 70.3083 7.17412 70.8777 7.78593C71.4506 8.39649 71.7335 9.13467 71.7335 10.0092C71.7335 10.8888 71.4506 11.632 70.8825 12.2375ZM67.1955 11.7346C67.6241 12.1837 68.1453 12.4089 68.7664 12.4089C69.3827 12.4089 69.9087 12.1837 70.3324 11.7346C70.7597 11.2854 70.9764 10.7086 70.9764 10.0092C70.9764 9.30983 70.7597 8.73305 70.3324 8.28389C69.9087 7.83472 69.3827 7.60952 68.7664 7.60952C68.1453 7.60952 67.6241 7.83472 67.1955 8.28389C66.7682 8.73305 66.5516 9.30983 66.5516 10.0092C66.5516 10.7086 66.7682 11.2854 67.1955 11.7346V11.7346Z" fill="white" stroke="white" stroke-width="0.16" stroke-miterlimit="10"/>
<path d="M72.7773 13.0095V7.00903H73.6801L76.4872 11.6758H76.5197L76.4872 10.5223V7.00903H77.2298V13.0095H76.4547L73.5152 8.11255H73.4827L73.5152 9.27111V13.0095H72.7773V13.0095Z" fill="white" stroke="white" stroke-width="0.16" stroke-miterlimit="10"/>
<path d="M65.6115 21.7726C63.3497 21.7726 61.5021 23.5617 61.5021 26.0302C61.5021 28.4787 63.3497 30.2866 65.6115 30.2866C67.8781 30.2866 69.7258 28.4787 69.7258 26.0302C69.7258 23.5617 67.8781 21.7726 65.6115 21.7726ZM65.6115 28.6101C64.3705 28.6101 63.3028 27.5454 63.3028 26.0302C63.3028 24.4951 64.3705 23.4491 65.6115 23.4491C66.8525 23.4491 67.925 24.4951 67.925 26.0302C67.925 27.5454 66.8525 28.6101 65.6115 28.6101V28.6101ZM56.6451 21.7726C54.3785 21.7726 52.5357 23.5617 52.5357 26.0302C52.5357 28.4787 54.3785 30.2866 56.6451 30.2866C58.9105 30.2866 60.7545 28.4787 60.7545 26.0302C60.7545 23.5617 58.9105 21.7726 56.6451 21.7726ZM56.6451 28.6101C55.4029 28.6101 54.3316 27.5454 54.3316 26.0302C54.3316 24.4951 55.4029 23.4491 56.6451 23.4491C57.8861 23.4491 58.9538 24.4951 58.9538 26.0302C58.9538 27.5454 57.8861 28.6101 56.6451 28.6101ZM45.9755 23.0775V24.8867H50.1319C50.0103 25.8976 49.6853 26.6408 49.187 27.1588C48.5803 27.7843 47.6354 28.4787 45.9755 28.4787C43.4176 28.4787 41.4146 26.333 41.4146 23.6743C41.4146 21.0156 43.4176 18.8699 45.9755 18.8699C47.3585 18.8699 48.3648 19.4317 49.1075 20.1598L50.3341 18.8849C49.2953 17.854 47.9134 17.062 45.9755 17.062C42.4679 17.062 39.52 20.0285 39.52 23.6743C39.52 27.3202 42.4679 30.2866 45.9755 30.2866C47.8713 30.2866 49.2953 29.641 50.4147 28.4299C51.5619 27.2376 51.9194 25.561 51.9194 24.2073C51.9194 23.7869 51.8857 23.4003 51.8255 23.0775H45.9755ZM89.6049 24.48C89.2667 23.5279 88.2231 21.7726 86.0973 21.7726C83.9908 21.7726 82.237 23.4979 82.237 26.0302C82.237 28.4149 83.9728 30.2866 86.2995 30.2866C88.1809 30.2866 89.2667 29.0943 89.7132 28.3999L88.3169 27.4328C87.8511 28.1409 87.2168 28.6101 86.2995 28.6101C85.3883 28.6101 84.7347 28.1759 84.3158 27.3202L89.7939 24.9642L89.6049 24.48V24.48ZM84.0197 25.8976C83.9728 24.2561 85.2463 23.4153 86.1587 23.4153C86.8737 23.4153 87.4804 23.7869 87.6826 24.3187L84.0197 25.8976V25.8976ZM79.5672 30.0276H81.368V17.5162H79.5672V30.0276ZM76.6182 22.7209H76.558C76.1535 22.223 75.382 21.7726 74.4045 21.7726C72.3534 21.7726 70.4781 23.6443 70.4781 26.044C70.4781 28.4299 72.3534 30.2866 74.4045 30.2866C75.382 30.2866 76.1535 29.8325 76.558 29.3195H76.6182V29.9301C76.6182 31.5578 75.7816 32.4323 74.4322 32.4323C73.332 32.4323 72.6495 31.6066 72.3679 30.9122L70.8019 31.5916C71.2532 32.7201 72.4485 34.1089 74.4322 34.1089C76.5435 34.1089 78.325 32.8177 78.325 29.6761V22.0315H76.6182V22.7209V22.7209ZM74.5586 28.6101C73.3176 28.6101 72.2788 27.5303 72.2788 26.044C72.2788 24.5439 73.3176 23.4491 74.5586 23.4491C75.7816 23.4491 76.7458 24.5439 76.7458 26.044C76.7458 27.5303 75.7816 28.6101 74.5586 28.6101V28.6101ZM98.0356 17.5162H93.7288V30.0276H95.5247V25.287H98.0356C100.03 25.287 101.986 23.7869 101.986 21.401C101.986 19.0163 100.025 17.5162 98.0356 17.5162V17.5162ZM98.0826 23.5467H95.5247V19.2565H98.0826C99.4235 19.2565 100.189 20.4138 100.189 21.401C100.189 22.3694 99.4235 23.5467 98.0826 23.5467ZM109.184 21.7488C107.887 21.7488 106.537 22.3443 105.982 23.6643L107.576 24.3587C107.919 23.6643 108.55 23.4391 109.217 23.4391C110.149 23.4391 111.093 24.0209 111.108 25.0481V25.1794C110.783 24.9843 110.087 24.6952 109.231 24.6952C107.515 24.6952 105.766 25.6774 105.766 27.5103C105.766 29.1869 107.172 30.2666 108.752 30.2666C109.961 30.2666 110.628 29.6998 111.046 29.0405H111.108V30.0076H112.842V25.2082C112.842 22.9899 111.249 21.7488 109.184 21.7488ZM108.968 28.6051C108.38 28.6051 107.562 28.3023 107.562 27.5454C107.562 26.577 108.582 26.2054 109.466 26.2054C110.257 26.2054 110.628 26.3868 111.108 26.6258C110.967 27.7843 110.008 28.6051 108.968 28.6051V28.6051ZM119.162 22.0228L117.097 27.4465H117.036L114.902 22.0228H112.965L116.172 29.6022L114.342 33.8199H116.219L121.16 22.0228H119.162V22.0228ZM102.973 30.0276H104.774V17.5162H102.973V30.0276Z" fill="white"/>
<path d="M10.0486 7.54575C9.76575 7.85353 9.60205 8.33272 9.60205 8.95329V31.0886C9.60205 31.7092 9.76575 32.1884 10.0486 32.4962L10.1184 32.5637L22.052 20.1648V19.8721L10.1184 7.47318L10.0486 7.54575Z" fill="url(#paint0_linear_15484_70)"/>
<path d="M26.0252 24.3L22.0518 20.165V19.8722L26.03 15.7372L26.1191 15.791L30.8304 18.5773C32.1749 19.368 32.1749 20.6692 30.8304 21.4649L26.1191 24.2462L26.0252 24.3V24.3Z" fill="url(#paint1_linear_15484_70)"/>
<path d="M26.119 24.2463L22.0517 20.0187L10.0483 32.4964C10.4949 32.9843 11.2232 33.0431 12.0513 32.5552L26.119 24.2463" fill="url(#paint2_linear_15484_70)"/>
<path d="M26.119 15.7909L12.0513 7.48205C11.2232 6.9991 10.4949 7.05791 10.0483 7.54585L22.0517 20.0186L26.119 15.7909Z" fill="url(#paint3_linear_15484_70)"/>
<defs>
<linearGradient id="paint0_linear_15484_70" x1="20.9924" y1="31.3191" x2="4.20712" y2="15.1704" gradientUnits="userSpaceOnUse">
<stop stop-color="#00A0FF"/>
<stop offset="0.0066" stop-color="#00A1FF"/>
<stop offset="0.2601" stop-color="#00BEFF"/>
<stop offset="0.5122" stop-color="#00D2FF"/>
<stop offset="0.7604" stop-color="#00DFFF"/>
<stop offset="1" stop-color="#00E3FF"/>
</linearGradient>
<linearGradient id="paint1_linear_15484_70" x1="32.5812" y1="20.0172" x2="9.28046" y2="20.0172" gradientUnits="userSpaceOnUse">
<stop stop-color="#FFE000"/>
<stop offset="0.4087" stop-color="#FFBD00"/>
<stop offset="0.7754" stop-color="#FFA500"/>
<stop offset="1" stop-color="#FF9C00"/>
</linearGradient>
<linearGradient id="paint2_linear_15484_70" x1="23.9073" y1="17.7205" x2="1.1451" y2="-4.17857" gradientUnits="userSpaceOnUse">
<stop stop-color="#FF3A44"/>
<stop offset="1" stop-color="#C31162"/>
</linearGradient>
<linearGradient id="paint3_linear_15484_70" x1="7.02685" y1="39.8606" x2="17.1912" y2="30.0818" gradientUnits="userSpaceOnUse">
<stop stop-color="#32A071"/>
<stop offset="0.0685" stop-color="#2DA771"/>
<stop offset="0.4762" stop-color="#15CF74"/>
<stop offset="0.8009" stop-color="#06E775"/>
<stop offset="1" stop-color="#00F076"/>
</linearGradient>
</defs>
</svg>
